<?xml version="1.0" encoding="UTF-8"?>
<svg xmlns="http://www.w3.org/2000/svg" viewBox="0 0 24 24" width="512" height="512" role="img" aria-label="MoneyMirror logo">
  <defs>
    <linearGradient id="grad" x1="0" y1="0" x2="1" y2="1">
      <stop offset="0%" stop-color="#10b981"/>
      <stop offset="50%" stop-color="#22c55e"/>
      <stop offset="100%" stop-color="#0d9488"/>
    </linearGradient>
  </defs>

  <!-- Rounded gradient background -->
  <rect x="0" y="0" width="24" height="24" rx="4" ry="4" fill="url(#grad)" />

  <!-- Icon (from the React component) rendered in white -->
  <path
    d="M12 8c-1.657 0-3 .895-3 2s1.343 2 3 2 3 .895 3 2-1.343 2-3 2m0-8c1.11 0 2.08.402 2.599 1M12 8V7m0 1v8m0 0v1m0-1c-1.11 0-2.08-.402-2.599-1M21 12a9 9 0 11-18 0 9 9 0 0118 0z"
    fill="none"
    stroke="#ffffff"
    stroke-width="2.5"
    stroke-linecap="round"
    stroke-linejoin="round"
  />
</svg>
